<?xml version="1.0" encoding="UTF-8"?><svg id="Layer_1" xmlns="http://www.w3.org/2000/svg" viewBox="0 0 427.21 686.97"><defs><style>.cls-1{fill:#010101;}</style></defs><path class="cls-1" d="M420.52,575.18c-4.13-2.56-9.4-2.85-13.81-.57l-36.46,18.09v-176.3c0-41.87-16.23-81.17-45.85-110.79-29.62-29.62-68.92-45.85-110.79-45.85-86.44,0-156.65,70.2-156.65,156.65v176.3l-36.31-18.23c-4.41-2.14-9.68-1.99-13.81,.57-4.27,2.71-6.84,7.26-6.84,12.25v85.44c0,7.83,6.41,14.24,14.24,14.24H412.97c7.83,0,14.24-6.41,14.24-14.24v-85.44c0-4.98-2.56-9.54-6.69-12.1h0ZM199.36,289.09v41.87c0,7.83,6.41,14.24,14.24,14.24h28.48v14.24c0,7.83,6.41,14.24,14.24,14.24s14.24-6.41,14.24-14.24v-28.48c0-7.83-6.41-14.24-14.24-14.24h-28.48v-27.63c28.77,3.13,55.54,15.95,76.33,36.74,24.21,24.21,37.59,56.39,37.59,90.57v125.46l-1-2.56c-1.99-4.84-6.55-8.26-11.82-8.83-5.41-.57-10.4,1.85-13.39,6.27l-43.29,65.08-17.52-35.03c-2.42-4.98-7.26-7.97-12.67-7.97s-10.25,2.99-12.67,7.83l-15.81,31.47-15.81-31.47c-4.84-9.68-20.65-9.68-25.49,0l-17.52,35.03-43.29-65.08c-2.99-4.41-8.12-6.84-13.39-6.27s-9.83,3.99-11.82,8.83l-.85,2.71v-125.46c0-65.79,49.99-120.19,113.92-127.31h0Zm199.37,369.4H28.48v-48.13l36.31,18.23c.43,.14,.85,.14,1.28,.28,.85,.28,1.57,.71,2.42,.85,.43,.14,.71,0,1.14,0,.71,.14,1.28,0,1.99,0,1.14,0,2.28-.14,3.42-.57,.43-.14,.85,0,1.14-.14s.43-.28,.71-.43c1.14-.57,2.14-1.14,2.99-1.99,.43-.43,1-.71,1.42-1.14,1.28-1.28,2.28-2.71,2.99-4.56l18.37-46.14,42.01,62.94c2.85,4.27,7.41,6.69,12.67,6.27,5.13-.28,9.54-3.28,11.82-7.83l15.95-31.19,15.81,31.47c4.84,9.68,20.65,9.68,25.49,0l15.66-31.47,15.81,31.47c2.28,4.56,6.84,7.55,11.82,7.83h.85c.43,0,.85-.14,1.28-.14,.71,0,1.42-.14,2.14-.28,.14,0,.28-.14,.43-.14,2.14-.57,3.99-1.57,5.7-3.13,.85-.71,1.71-1.71,2.28-2.71l42.01-62.94,18.37,46.14c.71,1.71,1.71,3.28,2.99,4.56,.43,.43,.85,.71,1.42,1,1,.71,1.99,1.42,2.99,1.99,.28,.14,.43,.43,.71,.43,.43,.14,.85,.14,1.28,.14,1.14,.28,2.14,.43,3.28,.57h3.28c.85-.14,1.57-.57,2.28-.85,.43-.14,.85-.14,1.28-.28l36.46-18.23v48.13ZM128.16,416.39c0-7.83,6.41-14.24,14.24-14.24h142.4c7.83,0,14.24,6.41,14.24,14.24s-6.41,14.24-14.24,14.24H142.4c-7.83,0-14.24-6.41-14.24-14.24Zm156.65,56.96c0,7.83-6.41,14.24-14.24,14.24h-113.92c-7.83,0-14.24-6.41-14.24-14.24s6.41-14.24,14.24-14.24h113.92c7.83,0,14.24,6.41,14.24,14.24Z"/><g><path class="cls-1" d="M59.58,231.86c0,24.34-36.51,24.34-36.51,0s36.51-24.35,36.51,0"/><path class="cls-1" d="M141.36,213.59c13.5-2.38,26.99-3.17,40.49-3.97-.79-30.96-18.27-57.95-18.27-58.75-22.22-34.94-57.16-35.73-82.57-29.37-14.29,3.17-26.2,10.32-34.94,19.84-19.05,20.65-16.67,45.25-13.5,57.16,2.38-.79,4.76-.79,7.93-.79,2.38,0,4.76,0,6.36,.79,10.32-19.05,22.22-29.37,35.73-29.37,23.03,0,42.08,27.79,51.61,46.04,3.19-.79,5.57-1.58,7.16-1.58h0Z"/><path class="cls-1" d="M285.06,229.47c-46.85-7.15-94.48-7.15-141.31,0-3.17,.79-6.36,2.38-8.74,4.76-.79,2.38-1.59,5.55-.79,7.93,.79,5.55,7.15,9.53,13.5,8.74,44.46-6.36,89.72-6.36,134.97,0,6.36,.79,11.91-3.17,13.5-8.74,.79-2.38,0-5.55-1.59-7.15-3.19-3.17-6.37-4.76-9.54-5.55h0Z"/><path class="cls-1" d="M172.32,134.21c1.59,2.38,3.97,4.76,5.55,7.93,.79,1.59,19.84,30.96,20.65,66.69h29.37c.79-31.75,15.88-58.75,19.84-65.1,.79-5.55,3.97-26.99-8.74-39.7-15.08-15.08-18.27-30.96-17.46-41.28,0-13.5,6.36-25.41,16.67-34.13,15.88-13.5,33.34-6.36,42.87,1.59,3.17-2.38,7.15-3.97,11.12-4.76-5.55-10.32-13.5-17.46-23.03-21.44-23.03-9.53-49.23,.79-49.23,1.59-57.95,29.37-50.02,101.63-47.63,124.64,.01,1.58,.01,2.37,.01,3.96h0Z"/><path class="cls-1" d="M319.19,58.78c0,24.35-36.51,24.35-36.51,0s36.51-24.35,36.51,0"/><path class="cls-1" d="M393.83,197.71c3.17-11.91,5.55-36.51-13.5-57.16-8.74-9.53-20.65-16.67-34.94-19.84-25.41-5.55-59.54-5.55-82.57,29.37,0,0-17.46,27.79-18.27,58.75,14.29,.79,28.58,2.38,42.08,3.97,1.59,0,3.17,.79,4.76,.79,9.53-18.27,28.58-46.04,51.61-46.04,13.5,0,25.41,10.32,35.73,29.37,2.38-.79,3.97-.79,6.36-.79,3.97,.79,6.36,1.58,8.74,1.58h0Z"/><path class="cls-1" d="M404.14,231.86c0,24.34-36.51,24.34-36.51,0s36.51-24.35,36.51,0"/></g></svg>