<?xml version="1.0" encoding="UTF-8"?>
<svg xmlns="http://www.w3.org/2000/svg" viewBox="0 0 427.22 686.97">
  <defs>
    <style>
      .cls-1 {
        fill: #fff;
      }

      .cls-1, .cls-2 {
        stroke: #231f20;
        stroke-miterlimit: 10;
      }

      .cls-3 {
        fill: #010101;
      }

      .cls-3, .cls-4 {
        stroke-width: 0px;
      }

      .cls-2 {
        stroke-width: 4px;
      }

      .cls-2, .cls-4 {
        fill: #00a651;
      }
    </style>
  </defs>
  <g id="Layer_2" data-name="Layer 2">
    <polygon class="cls-1" points="85.98 635.05 81.08 384.28 114.42 311.78 181.86 275.95 241.08 275.95 304.42 305.11 346.08 367.45 351.08 441.76 347.75 635.05 85.98 635.05"/>
  </g>
  <g id="Layer_1" data-name="Layer 1">
    <g>
      <path class="cls-3" d="m270.57,459.12h-113.92c-7.84,0-14.24,6.41-14.24,14.24s6.4,14.24,14.24,14.24h113.92c7.83,0,14.24-6.41,14.24-14.24s-6.41-14.24-14.24-14.24Zm14.24-56.96h-142.4c-7.84,0-14.24,6.4-14.24,14.24s6.4,14.24,14.24,14.24h142.4c7.83,0,14.24-6.41,14.24-14.24s-6.41-14.24-14.24-14.24Zm0,0h-142.4c-7.84,0-14.24,6.4-14.24,14.24s6.4,14.24,14.24,14.24h142.4c7.83,0,14.24-6.41,14.24-14.24s-6.41-14.24-14.24-14.24Zm-14.24,56.96h-113.92c-7.84,0-14.24,6.41-14.24,14.24s6.4,14.24,14.24,14.24h113.92c7.83,0,14.24-6.41,14.24-14.24s-6.41-14.24-14.24-14.24Zm149.96,116.06h-.01c-4.13-2.56-9.4-2.85-13.81-.57l-39.08,27.2-10.88-185.41c0-41.87-2.73-81.17-32.35-110.79s-68.92-45.86-110.79-45.86c-86.44,0-137.89,55.96-137.89,142.41l.86,216.58-55.93-44.27c-4.41-2.13-9.68-1.99-13.81.57-4.27,2.71-6.84,7.26-6.84,12.25v85.44c0,7.83,6.41,14.24,14.25,14.24h398.73c7.83,0,14.24-6.41,14.24-14.24v-85.44c0-4.99-2.56-9.54-6.69-12.11ZM85.44,416.4c0-65.79,49.99-120.19,113.93-127.31h22.52s-1.22,17.21-.96,33.49l34.32.71v14.24c0,7.83,23.63,22.13,31.46,22.13s-21.29-17.04-21.29-24.88l1.2-11.48c0-7.83-2.46-6.59-10.29-6.59h-28.48v-27.62c28.76,3.13,55.54,15.95,76.33,36.74,24.21,24.21,37.59,56.39,37.59,90.57v125.46l-.99-2.57c-2-4.84-6.55-8.26-11.82-8.83-5.42-.57-10.4,1.85-13.39,6.27l-43.29,65.08-17.52-35.03c-2.42-4.99-7.26-7.98-12.67-7.98s-10.25,2.99-12.67,7.83l-15.81,31.47-15.81-31.47c-4.84-9.68-20.65-9.68-25.49,0l-17.52,35.04-43.29-65.08c-2.99-4.42-8.11-6.84-13.38-6.27s-9.83,3.99-11.82,8.83l-.86,2.71v-125.46Zm324.91,253.95c0,3.4-2.76,6.15-6.15,6.15H19.1c-3.4,0-6.15-2.75-6.15-6.15v-73.03c0-5.26,6.18-8.09,10.16-4.66l40.53,34.93c.7.6,1.55.99,2.42,1.27.01,0,.01.01.02.01.85.28,1.56.71,2.42.85.43.14.71,0,1.14,0,.71.14,1.28,0,1.99,0,1.14,0,2.28-.14,3.42-.57.43-.14.85,0,1.14-.14.28-.14.43-.29.71-.43,1.14-.57,2.14-1.14,2.99-1.99.43-.43,1-.71,1.42-1.14,1.29-1.28,2.28-2.71,3-4.56l13.52-82.05c1.83-4.6,48.93,71.23,54.2,70.8,5.12-.29,32.28-50.39,34.54-45.88,0,0,22.2,59.41,27.04,49.72,0,0,26.28-55.35,28.56-50.82,0,0,23.01,49.68,28,49.97h.85c.43,0,.86-.15,1.28-.15.71,0,1.43-.14,2.14-.28.14,0,.28-.14.43-.14,2.13-.57,3.98-1.57,5.69-3.14.86-.71,1.71-1.71,2.28-2.7,0,0,42.38-69.5,45.2-67.33l26.57,59.28c.71.55,1.29,1.23,1.69,2.02.65,1.28,1.48,2.45,2.48,3.44.33.34.67.59,1.07.82.23.12.46.26.67.41.89.63,1.78,1.26,2.67,1.76.28.15.43.43.71.43.43.14.86.14,1.28.14,1.01.25,1.9.4,2.88.52.26.04.53.05.8.05h1.92c.88,0,1.75-.18,2.55-.55.23-.11.46-.21.68-.3.13-.04.25-.07.38-.1.65-.12,1.32-.12,1.98-.03l28.72,4.22c3.02.44,5.26,3.03,5.26,6.08v53.27Zm-267.94-239.71h142.4c7.83,0,14.24-6.41,14.24-14.24s-6.41-14.24-14.24-14.24h-142.4c-7.84,0-14.24,6.4-14.24,14.24s6.4,14.24,14.24,14.24Zm128.16,28.48h-113.92c-7.84,0-14.24,6.41-14.24,14.24s6.4,14.24,14.24,14.24h113.92c7.83,0,14.24-6.41,14.24-14.24s-6.41-14.24-14.24-14.24Z"/>
      <path class="cls-4" d="m410.35,617.08v53.27c0,3.4-2.76,6.15-6.15,6.15H19.1c-3.4,0-6.15-2.75-6.15-6.15v-73.03c0-5.26,6.18-8.09,10.16-4.66l40.53,34.93c.7.6,1.55.99,2.42,1.27.01,0,.01.01.02.01.85.28,1.56.71,2.42.85.43.14.71,0,1.14,0,.71.14,1.28,0,1.99,0,1.14,0,2.28-.14,3.42-.57.43-.14.85,0,1.14-.14.28-.14.43-.29.71-.43,1.14-.57,2.14-1.14,2.99-1.99.43-.43,1-.71,1.42-1.14,1.29-1.28,2.28-2.71,3-4.56l13.52-82.05c1.83-4.6,48.93,71.23,54.2,70.8,5.12-.29,32.28-50.39,34.54-45.88,0,0,22.2,59.41,27.04,49.72,0,0,26.28-55.35,28.56-50.82,0,0,23.01,49.68,28,49.97h.85c.43,0,.86-.15,1.28-.15.71,0,1.43-.14,2.14-.28.14,0,.28-.14.43-.14,2.13-.57,3.98-1.57,5.69-3.14.86-.71,1.71-1.71,2.28-2.7,0,0,42.38-69.5,45.2-67.33l26.57,59.28c.71.55,1.29,1.23,1.69,2.02.65,1.28,1.48,2.45,2.48,3.44.33.34.67.59,1.07.82.23.12.46.26.67.41.89.63,1.78,1.26,2.67,1.76.28.15.43.43.71.43.43.14.86.14,1.28.14,1.01.25,1.9.4,2.88.52.26.04.53.05.8.05h1.92c.88,0,1.75-.18,2.55-.55.23-.11.46-.21.68-.3.13-.04.25-.07.38-.1.65-.12,1.32-.12,1.98-.03l28.72,4.22c3.02.44,5.26,3.03,5.26,6.08Z"/>
      <g>
        <path class="cls-2" d="m59.58,231.86c0,24.34-36.51,24.34-36.51,0s36.51-24.35,36.51,0"/>
        <path class="cls-3" d="m141.37,213.59c13.5-2.38,26.99-3.17,40.49-3.97-.79-30.96-18.27-57.95-18.27-58.75-22.22-34.94-57.16-35.73-82.57-29.37-14.29,3.17-26.2,10.32-34.94,19.84-19.05,20.65-16.67,45.25-13.5,57.16,2.38-.79,4.76-.79,7.93-.79,2.38,0,4.76,0,6.36.79,10.32-19.05,22.22-29.37,35.73-29.37,23.03,0,42.08,27.79,51.61,46.04,3.19-.79,5.57-1.58,7.16-1.58h0Z"/>
        <path class="cls-3" d="m285.06,229.47c-46.85-7.15-94.48-7.15-141.31,0-3.17.79-6.36,2.38-8.74,4.76-.79,2.38-1.59,5.55-.79,7.93.79,5.55,7.15,9.53,13.5,8.74,44.46-6.36,89.72-6.36,134.97,0,6.36.79,11.91-3.17,13.5-8.74.79-2.38,0-5.55-1.59-7.15-3.19-3.17-6.37-4.76-9.54-5.55h0Z"/>
        <path class="cls-3" d="m172.33,134.21c1.59,2.38,3.97,4.76,5.55,7.93.79,1.59,19.84,30.96,20.65,66.69h29.37c.79-31.75,15.88-58.75,19.84-65.1.79-5.55,3.97-26.99-8.74-39.7-15.08-15.08-18.27-30.96-17.46-41.28,0-13.5,6.36-25.41,16.67-34.13,15.88-13.5,33.34-6.36,42.87,1.59,3.17-2.38,7.15-3.97,11.12-4.76-5.55-10.32-13.5-17.46-23.03-21.44-23.03-9.53-49.23.79-49.23,1.59-57.95,29.37-50.02,101.63-47.63,124.64.01,1.58.01,2.37.01,3.96h0Z"/>
        <path class="cls-2" d="m319.19,58.78c0,24.35-36.51,24.35-36.51,0s36.51-24.35,36.51,0"/>
        <path class="cls-3" d="m393.83,197.71c3.17-11.91,5.55-36.51-13.5-57.16-8.74-9.53-20.65-16.67-34.94-19.84-25.41-5.55-59.54-5.55-82.57,29.37,0,0-17.46,27.79-18.27,58.75,14.29.79,28.58,2.38,42.08,3.97,1.59,0,3.17.79,4.76.79,9.53-18.27,28.58-46.04,51.61-46.04,13.5,0,25.41,10.32,35.73,29.37,2.38-.79,3.97-.79,6.36-.79,3.97.79,6.36,1.58,8.74,1.58h0Z"/>
        <path class="cls-2" d="m404.15,231.86c0,24.34-36.51,24.34-36.51,0s36.51-24.35,36.51,0"/>
      </g>
    </g>
  </g>
</svg>